# Blender v2.71 (sub 0) OBJ File: 'RoomModel.blend'
# www.blender.org
o Floor
v 7.481493 -0.452566 -5.864017
v 7.481493 -0.452566 5.864017
v -7.481494 -0.452566 5.864016
v -7.481490 -0.452566 -5.864019
vt 0.000000 1.000000
vt 1.000000 1.000000
vt 1.000000 0.000000
vt 0.000000 0.000000
vn 0.000000 1.000000 0.000000
s off
f 4/1/1 3/2/1 2/3/1
f 1/4/1 4/1/1 2/3/1
o Right_Wall
v 7.481493 -0.452566 -5.864017
v 7.481493 -0.452566 5.864017
v 7.481496 6.452566 -5.864014
v 7.481488 6.452566 5.864020
vt 1.000000 1.000000
vt 1.000000 0.000000
vt 0.000000 0.000000
vt 0.000000 1.000000
vn -1.000000 -0.000000 0.000000
s off
f 5/5/2 6/6/2 8/7/2
f 7/8/2 5/5/2 8/7/2
o Front_Wall
v 7.481493 -0.452566 -5.864017
v -7.481490 -0.452566 -5.864019
v 7.481496 6.452566 -5.864014
v -7.481493 6.452566 -5.864017
vt 0.000000 1.000000
vt 1.000000 1.000000
vt 1.000000 0.000000
vt 0.000000 0.000000
vn -0.000000 -0.000000 1.000000
s off
f 12/9/3 10/10/3 9/11/3
f 11/12/3 12/9/3 9/11/3
o Left_Wall
v -7.481494 -0.452566 5.864016
v -7.481490 -0.452566 -5.864019
v -7.481496 6.452566 5.864015
v -7.481493 6.452566 -5.864017
vt 1.000000 0.000000
vt 0.000000 0.000000
vt 0.000000 1.000000
vt 1.000000 1.000000
vn 1.000000 0.000000 0.000000
s off
f 14/13/4 16/14/4 15/15/4
f 13/16/4 14/13/4 15/15/4
o Ceiling
v 7.481496 6.452566 -5.864014
v 7.481488 6.452566 5.864020
v -7.481496 6.452566 5.864015
v -7.481493 6.452566 -5.864017
vt 1.000000 0.000000
vt 0.000000 0.000000
vt 0.000000 1.000000
vt 1.000000 1.000000
vn 0.000000 -1.000000 0.000000
s off
f 17/17/5 18/18/5 19/19/5
f 20/20/5 17/17/5 19/19/5
o Back_Wall
v 7.481493 -0.452566 5.864017
v -7.481494 -0.452566 5.864016
v 7.481488 6.452566 5.864020
v -7.481496 6.452566 5.864015
vt 0.000000 1.000000
vt 1.000000 1.000000
vt 1.000000 0.000000
vt 0.000000 0.000000
vn 0.000000 -0.000000 -1.000000
s off
f 21/21/6 22/22/6 24/23/6
f 23/24/6 21/21/6 24/23/6
